#!OML:ASF F:\VICON\USERDATA\INSTALL\rory3\rory3.ASF
:FULLY-SPECIFIED
:DEGREES
158
root -0.0197 18.1579 -41.6132 5.40118 0.118 -6.17216
lowerback 14.6758 1.56551 7.99356
upperback 0.836872 3.39792 0.116048
thorax -6.88792 1.40406 -5.07513
lowerneck -7.41671 -0.537185 -0.697331
upperneck -8.76072 -0.662782 0.154687
head -1.47853 -0.30978 0.156668
rclavicle -3.8763e-015 -2.18663e-014
rhumerus -16.7525 13.6999 -86.4346
rradius 110.161
rwrist -7.13732
rhand -32.865 31.2926
rfingers 7.12502
rthumb -6.08387 1.39993
lclavicle -3.8763e-015 -2.18663e-014
lhumerus -61.0086 -2.45135 92.2784
lradius 104.078
lwrist 26.458
lhand -36.8421 11.0551
lfingers 7.12502
lthumb -9.92229 40.8013
rfemur 23.6257 8.51829 32.8228
rtibia 6.38478
rfoot 20.6401 -2.67878
rtoes 3.70047
lfemur -52.0013 4.63701 -13.5495
ltibia 83.4929
lfoot 5.27649 -7.91881
ltoes -13.1182
159
root -0.0197 18.2546 -41.3291 5.10738 0.118 -5.97773
lowerback 14.7112 1.3698 8.004
upperback 0.636445 3.14886 0.0154952
thorax -7.15415 1.26287 -5.15093
lowerneck -6.80394 -0.74816 -0.67069
upperneck -8.65159 -0.947847 0.201194
head -1.54348 -0.453608 0.166696
rclavicle 4.82053e-015 -3.37934e-015
rhumerus -17.3033 14.2085 -86.3285
rradius 110.889
rwrist -6.58325
rhand -33.3217 32.305
rfingers 7.12502
rthumb -6.52479 2.42554
lclavicle 4.82053e-015 -3.37934e-015
lhumerus -62.2479 -2.06449 91.9848
lradius 104.25
lwrist 26.2646
lhand -36.9296 11.3097
lfingers 7.12502
lthumb -10.0067 41.0518
rfemur 28.143 7.84694 32.749
rtibia 8.26944e-014
rfoot 28.0007 -4.10975
rtoes 8.03724
lfemur -51.6485 2.84377 -13.5501
ltibia 78.7167
lfoot 5.47242 -8.12717
ltoes -13.3603
160
root -0.0196 18.346 -41.0449 4.84054 0.118 -6.24307
lowerback 15.0401 1.06729 8.41068
upperback 0.400387 2.86717 0.0692306
thorax -7.62081 1.0826 -5.2915
lowerneck -6.5852 -0.90608 -0.609939
upperneck -8.28378 -1.16488 0.16274
head -1.46218 -0.563975 0.143126
rclavicle -2.80286e-014 -2.98177e-015
rhumerus -17.915 14.7915 -86.2642
rradius 111.596
rwrist -6.10797
rhand -33.9013 33.2479
rfingers 7.12502
rthumb -7.08433 3.38648
lclavicle -2.80286e-014 -2.98177e-015
lhumerus -63.2536 -1.73689 91.7011
lradius 104.316
lwrist 26.1369
lhand -36.4856 10.553
lfingers 7.12502
lthumb -9.57838 40.3153
rfemur 29.2886 7.08763 33.2399
rtibia 1.36764e-013
rfoot 32.4844 -4.7401
rtoes 11.674
lfemur -51.2407 1.16217 -12.9846
ltibia 73.6988
lfoot 6.00855 -8.44448
ltoes -12.6787
161
root -0.0196 18.4301 -40.7607 4.84113 0.118 -6.59142
lowerback 14.974 0.919032 8.83894
upperback 0.170217 2.7587 0.145602
thorax -7.83754 0.997588 -5.43251
lowerneck -6.52755 -0.96094 -0.580123
upperneck -7.82602 -1.24358 0.0684683
head -1.32724 -0.603915 0.107141
rclavicle 3.8266e-015 -4.57205e-015
rhumerus -18.5465 15.5109 -86.2736
rradius 112.213
rwrist -5.24804
rhand -33.9405 32.3374
rfingers 7.12502
rthumb -7.12214 2.47729
lclavicle 3.8266e-015 -4.57205e-015
lhumerus -64.1189 -1.44166 91.4616
lradius 104.565
lwrist 26.0603
lhand -36.1179 11.0658
lfingers 7.12502
lthumb -9.22361 40.8441
rfemur 30.2702 6.82928 33.7993
rtibia -3.49861e-014
rfoot 36.5303 -4.69158
rtoes 15.2728
lfemur -50.8505 -0.0575346 -12.3738
ltibia 68.4508
lfoot 6.63434 -8.67449
ltoes -12.0769
162
root -0.0196 18.5008 -40.4765 5.03566 0.118 -6.6396
lowerback 14.6622 0.872655 8.84927
upperback 0.0311484 2.68008 0.199569
thorax -7.8286 0.957034 -5.35373
lowerneck -7.17881 -1.00011 -0.721154
upperneck -6.94621 -1.28273 -0.00369319
head -0.946137 -0.621726 0.100318
rclavicle -2.68359e-015 2.20651e-014
rhumerus -18.8023 16.1693 -86.1129
rradius 112.046
rwrist -4.19511
rhand -35.6659 36.7891
rfingers 7.12502
rthumb -8.78741 6.99207
lclavicle -2.68359e-015 2.20651e-014
lhumerus -64.7851 -1.1099 91.3484
lradius 105.073
lwrist 25.9501
lhand -36.8763 12.7689
lfingers 7.12502
lthumb -9.95532 42.5134
rfemur 31.2332 6.79761 34.1008
rtibia -5.08889e-014
rfoot 39.3684 -4.00305
rtoes 16.9162
lfemur -50.3748 -0.87689 -12.1635
ltibia 63.0627
lfoot 6.89034 -8.82939
ltoes -14.3106
163
root -0.0195 18.5568 -40.1923 5.19765 0.118 -6.56072
lowerback 14.4393 0.90721 8.71169
upperback -0.018573 2.68372 0.2105
thorax -7.76267 0.966672 -5.25625
lowerneck -8.01682 -1.14329 -0.779722
upperneck -6.08382 -1.46542 -0.244134
head -0.549799 -0.714566 0.0257215
rclavicle 1.6847e-014 -1.09332e-014
rhumerus -19.1336 16.9223 -86.0529
rradius 112.241
rwrist -4.01941
rhand -36.1948 37.9328
rfingers 7.12502
rthumb -9.29778 8.15781
lclavicle 1.6847e-014 -1.09332e-014
lhumerus -65.0229 -0.955601 91.3353
lradius 105.497
lwrist 26.0267
lhand -38.3083 14.5846
lfingers 7.12502
lthumb -11.3366 44.2582
rfemur 32.3132 6.93872 34.3235
rtibia -4.77083e-014
rfoot 40.0783 -3.78403
rtoes 15.1984
lfemur -49.5403 -1.34225 -12.1737
ltibia 57.6591
lfoot 6.98094 -8.80654
ltoes -17.3552
164
root -0.0195 18.6018 -39.9081 5.37251 0.118 -6.85814
lowerback 14.0812 1.01045 8.97087
upperback 0.00593693 2.82657 0.232247
thorax -7.50186 1.04122 -5.38932
lowerneck -8.00176 -1.21086 -0.621567
upperneck -6.20078 -1.57425 -0.467321
head -0.590624 -0.771464 -0.068364
rclavicle 1.46107e-014 -2.24627e-014
rhumerus -19.4258 17.5509 -86.1635
rradius 112.506
rwrist -3.78426
rhand -36.2927 38.7372
rfingers 7.12502
rthumb -9.39219 8.96645
lclavicle 1.46107e-014 -2.24627e-014
lhumerus -64.8688 -0.968155 91.2526
lradius 105.772
lwrist 26.0746
lhand -38.6189 15.5142
lfingers 7.12502
lthumb -11.6362 45.1711
rfemur 33.4059 7.40196 34.9866
rtibia -1.27222e-014
rfoot 38.5615 -3.87573
rtoes 6.12474
lfemur -48.4561 -1.31385 -11.8723
ltibia 52.3795
lfoot 7.7336 -8.72331
ltoes -16.5774
